<svg xmlns="http://www.w3.org/2000/svg" version="1.1" xmlns:xlink="http://www.w3.org/1999/xlink" xmlns:svgjs="http://svgjs.com/svgjs" width="1440" height="560" preserveAspectRatio="none" viewBox="0 0 1440 560">
    <g mask="url(&quot;#SvgjsMask2897&quot;)" fill="none">
        <rect width="1440" height="560" x="0" y="0" fill="url(#SvgjsLinearGradient2898)"></rect>
        <path d="M855 185L566 474" stroke-width="10" stroke="url(#SvgjsLinearGradient2899)" stroke-linecap="round" class="BottomLeft"></path>
        <path d="M1337 185L999 523" stroke-width="10" stroke="url(#SvgjsLinearGradient2899)" stroke-linecap="round" class="BottomLeft"></path>
        <path d="M401 133L77 457" stroke-width="8" stroke="url(#SvgjsLinearGradient2899)" stroke-linecap="round" class="BottomLeft"></path>
        <path d="M247 510L-70 827" stroke-width="6" stroke="url(#SvgjsLinearGradient2899)" stroke-linecap="round" class="BottomLeft"></path>
        <path d="M139 151L407 -117" stroke-width="6" stroke="url(#SvgjsLinearGradient2899)" stroke-linecap="round" class="BottomLeft"></path>
        <path d="M515 194L746 -37" stroke-width="8" stroke="url(#SvgjsLinearGradient2899)" stroke-linecap="round" class="BottomLeft"></path>
        <path d="M305 47L82 270" stroke-width="8" stroke="url(#SvgjsLinearGradient2899)" stroke-linecap="round" class="BottomLeft"></path>
        <path d="M881 382L594 669" stroke-width="6" stroke="url(#SvgjsLinearGradient2900)" stroke-linecap="round" class="TopRight"></path>
        <path d="M607 168L1022 -247" stroke-width="6" stroke="url(#SvgjsLinearGradient2899)" stroke-linecap="round" class="BottomLeft"></path>
        <path d="M795 285L952 128" stroke-width="10" stroke="url(#SvgjsLinearGradient2900)" stroke-linecap="round" class="TopRight"></path>
        <path d="M251 474L-55 780" stroke-width="10" stroke="url(#SvgjsLinearGradient2899)" stroke-linecap="round" class="BottomLeft"></path>
        <path d="M826 221L546 501" stroke-width="6" stroke="url(#SvgjsLinearGradient2899)" stroke-linecap="round" class="BottomLeft"></path>
        <path d="M611 543L407 747" stroke-width="10" stroke="url(#SvgjsLinearGradient2900)" stroke-linecap="round" class="TopRight"></path>
        <path d="M1150 32L1305 -123" stroke-width="6" stroke="url(#SvgjsLinearGradient2899)" stroke-linecap="round" class="BottomLeft"></path>
        <path d="M1425 489L1779 135" stroke-width="8" stroke="url(#SvgjsLinearGradient2900)" stroke-linecap="round" class="TopRight"></path>
        <path d="M1171 112L937 346" stroke-width="6" stroke="url(#SvgjsLinearGradient2899)" stroke-linecap="round" class="BottomLeft"></path>
        <path d="M584 43L840 -213" stroke-width="10" stroke="url(#SvgjsLinearGradient2899)" stroke-linecap="round" class="BottomLeft"></path>
        <path d="M1311 402L1121 592" stroke-width="6" stroke="url(#SvgjsLinearGradient2899)" stroke-linecap="round" class="BottomLeft"></path>
        <path d="M720 437L1136 21" stroke-width="6" stroke="url(#SvgjsLinearGradient2900)" stroke-linecap="round" class="TopRight"></path>
        <path d="M571 195L195 571" stroke-width="10" stroke="url(#SvgjsLinearGradient2899)" stroke-linecap="round" class="BottomLeft"></path>
        <path d="M1317 530L1019 828" stroke-width="6" stroke="url(#SvgjsLinearGradient2899)" stroke-linecap="round" class="BottomLeft"></path>
        <path d="M1126 30L1360 -204" stroke-width="8" stroke="url(#SvgjsLinearGradient2900)" stroke-linecap="round" class="TopRight"></path>
        <path d="M1112 379L1265 226" stroke-width="6" stroke="url(#SvgjsLinearGradient2900)" stroke-linecap="round" class="TopRight"></path>
        <path d="M1282 390L901 771" stroke-width="8" stroke="url(#SvgjsLinearGradient2899)" stroke-linecap="round" class="BottomLeft"></path>
        <path d="M1289 1L1016 274" stroke-width="6" stroke="url(#SvgjsLinearGradient2899)" stroke-linecap="round" class="BottomLeft"></path>
        <path d="M1331 422L1556 197" stroke-width="10" stroke="url(#SvgjsLinearGradient2899)" stroke-linecap="round" class="BottomLeft"></path>
        <path d="M813 393L1034 172" stroke-width="8" stroke="url(#SvgjsLinearGradient2899)" stroke-linecap="round" class="BottomLeft"></path>
        <path d="M984 305L1204 85" stroke-width="6" stroke="url(#SvgjsLinearGradient2900)" stroke-linecap="round" class="TopRight"></path>
        <path d="M95 350L-117 562" stroke-width="8" stroke="url(#SvgjsLinearGradient2900)" stroke-linecap="round" class="TopRight"></path>
        <path d="M789 388L1127 50" stroke-width="10" stroke="url(#SvgjsLinearGradient2900)" stroke-linecap="round" class="TopRight"></path>
        <path d="M618 123L1019 -278" stroke-width="6" stroke="url(#SvgjsLinearGradient2899)" stroke-linecap="round" class="BottomLeft"></path>
        <path d="M17 450L-230 697" stroke-width="8" stroke="url(#SvgjsLinearGradient2899)" stroke-linecap="round" class="BottomLeft"></path>
        <path d="M683 314L339 658" stroke-width="10" stroke="url(#SvgjsLinearGradient2900)" stroke-linecap="round" class="TopRight"></path>
        <path d="M808 528L396 940" stroke-width="10" stroke="url(#SvgjsLinearGradient2899)" stroke-linecap="round" class="BottomLeft"></path>
        <path d="M549 137L704 -18" stroke-width="6" stroke="url(#SvgjsLinearGradient2900)" stroke-linecap="round" class="TopRight"></path>
        <path d="M287 323L447 163" stroke-width="6" stroke="url(#SvgjsLinearGradient2899)" stroke-linecap="round" class="BottomLeft"></path>
        <path d="M1239 557L1608 188" stroke-width="8" stroke="url(#SvgjsLinearGradient2899)" stroke-linecap="round" class="BottomLeft"></path>
        <path d="M1045 308L818 535" stroke-width="8" stroke="url(#SvgjsLinearGradient2899)" stroke-linecap="round" class="BottomLeft"></path>
        <path d="M1271 131L1613 -211" stroke-width="6" stroke="url(#SvgjsLinearGradient2900)" stroke-linecap="round" class="TopRight"></path>
    </g>
    <defs>
        <mask id="SvgjsMask2897">
            <rect width="1440" height="560" fill="#ffffff"></rect>
        </mask>
        <linearGradient x1="50%" y1="0%" x2="50%" y2="100%" gradientUnits="userSpaceOnUse" id="SvgjsLinearGradient2898">
            <stop stop-color="#0e2a47" offset="0"></stop>
            <stop stop-color="rgba(171, 204, 248, 1)" offset="1"></stop>
        </linearGradient>
        <linearGradient x1="100%" y1="0%" x2="0%" y2="100%" id="SvgjsLinearGradient2899">
            <stop stop-color="rgba(255, 255, 255, 0)" offset="0"></stop>
            <stop stop-color="rgba(255, 255, 255, 1)" offset="1"></stop>
        </linearGradient>
        <linearGradient x1="0%" y1="100%" x2="100%" y2="0%" id="SvgjsLinearGradient2900">
            <stop stop-color="rgba(255, 255, 255, 0)" offset="0"></stop>
            <stop stop-color="rgba(255, 255, 255, 1)" offset="1"></stop>
        </linearGradient>
    </defs>
</svg>