<svg xmlns="http://www.w3.org/2000/svg" version="1.1" xmlns:xlink="http://www.w3.org/1999/xlink" xmlns:svgjs="http://svgjs.com/svgjs" width="1440" height="560" preserveAspectRatio="none" viewBox="0 0 1440 560">
    <g mask="url(&quot;#SvgjsMask1004&quot;)" fill="none">
        <rect width="1440" height="560" x="0" y="0" fill="url(#SvgjsLinearGradient1005)"></rect>
        <path d="M1536 560L0 560 L0 390.03Q56.35 374.38, 72 430.73Q118.53 357.26, 192 403.79Q233.07 372.86, 264 413.93Q312.87 342.8, 384 391.67Q444.54 380.21, 456 440.74Q505.27 370.01, 576 419.29Q603.16 374.45, 648 401.61Q699.47 381.08, 720 432.55Q755.91 348.46, 840 384.37Q915.82 340.19, 960 416Q1002 386, 1032 428.01Q1076.86 352.87, 1152 397.73Q1220.12 345.85, 1272 413.96Q1319.67 389.63, 1344 437.3Q1361.99 383.3, 1416 401.29Q1488.53 353.82, 1536 426.35z" fill="rgba(125, 130, 140, 1)"></path>
        <path d="M1464 560L0 560 L0 453.21Q71.43 404.63, 120 476.06Q174.19 410.25, 240 464.45Q287.48 439.93, 312 487.41Q342.19 445.6, 384 475.78Q407.69 427.46, 456 451.15Q503.36 378.5, 576 425.86Q641.79 371.65, 696 437.44Q741.11 410.55, 768 455.66Q810.26 425.92, 840 468.18Q860.2 416.38, 912 436.58Q977.85 382.43, 1032 448.28Q1111.61 407.88, 1152 487.49Q1184.36 399.85, 1272 432.21Q1321.57 409.78, 1344 459.35Q1397.63 392.98, 1464 446.6z" fill="rgba(137, 142, 153, 1)"></path>
        <path d="M1512 560L0 560 L0 529.07Q24.9 481.97, 72 506.87Q93.89 456.76, 144 478.66Q187.95 450.62, 216 494.57Q257.47 464.04, 288 505.51Q331.33 428.84, 408 472.16Q492.57 436.73, 528 521.3Q548.9 470.2, 600 491.11Q652.36 423.47, 720 475.82Q768.78 452.6, 792 501.38Q858.43 447.81, 912 514.25Q953.37 435.62, 1032 476.98Q1104.61 429.59, 1152 502.19Q1218.48 448.67, 1272 515.15Q1317.05 440.2, 1392 485.25Q1472.44 445.69, 1512 526.14z" fill="rgba(174, 181, 197, 1)"></path>
        <path d="M1464 560L0 560 L0 564.57Q39.84 484.41, 120 524.26Q188.34 472.6, 240 540.93Q292.62 521.55, 312 574.17Q319.5 509.67, 384 517.18Q449.44 462.62, 504 528.05Q574.86 478.91, 624 549.77Q667.7 473.47, 744 517.18Q813.65 466.83, 864 536.47Q916.61 517.08, 936 569.69Q969.23 482.92, 1056 516.15Q1122.61 462.75, 1176 529.36Q1231.38 512.74, 1248 568.11Q1274.93 523.04, 1320 549.96Q1343.61 501.57, 1392 525.18Q1449.21 510.39, 1464 567.61z" fill="white"></path>
    </g>
    <defs>
        <mask id="SvgjsMask1004">
            <rect width="1440" height="560" fill="#ffffff"></rect>
        </mask>
        <linearGradient x1="15.28%" y1="-39.29%" x2="84.72%" y2="139.29%" gradientUnits="userSpaceOnUse" id="SvgjsLinearGradient1005">
            <stop stop-color="rgba(255, 242, 242, 1)" offset="0"></stop>
            <stop stop-color="rgba(118, 186, 232, 1)" offset="1"></stop>
        </linearGradient>
    </defs>
</svg>