<svg xmlns="http://www.w3.org/2000/svg" version="1.1" xmlns:xlink="http://www.w3.org/1999/xlink" xmlns:svgjs="http://svgjs.com/svgjs" width="1440" height="560" preserveAspectRatio="none" viewBox="0 0 1440 560">
    <g mask="url(&quot;#SvgjsMask1253&quot;)" fill="none">
        <rect width="1440" height="560" x="0" y="0" fill="url(#SvgjsLinearGradient1254)"></rect>
        <path d="M1512 560L0 560 L0 375.22Q-8.62 294.61, 72 285.99Q143.52 285.51, 144 357.04Q166.23 307.27, 216 329.51Q252.12 245.63, 336 281.75Q379.57 253.32, 408 296.9Q454.83 271.73, 480 318.55Q532.19 298.74, 552 350.93Q594.86 321.79, 624 364.65Q631.39 300.04, 696 307.43Q746.84 238.27, 816 289.11Q911.98 265.09, 936 361.06Q946.74 299.8, 1008 310.54Q1034 264.54, 1080 290.54Q1132.94 271.48, 1152 324.42Q1229.29 281.71, 1272 359Q1323.78 290.78, 1392 342.57Q1422.93 253.5, 1512 284.44z" fill="#182f5d"></path>
        <path d="M1464 560L0 560 L0 371.35Q66.89 366.24, 72 433.13Q115.52 356.65, 192 400.18Q204.64 340.82, 264 353.46Q329.57 299.03, 384 364.61Q448.67 357.28, 456 421.95Q493.54 339.49, 576 377.03Q625.35 306.38, 696 355.73Q750.02 337.75, 768 391.78Q845.49 349.27, 888 426.76Q893.09 359.85, 960 364.93Q1027.31 312.24, 1080 379.54Q1133.15 360.7, 1152 413.85Q1203.46 345.31, 1272 396.77Q1352.37 357.13, 1392 437.5Q1418.66 392.16, 1464 418.83z" fill="#25467d"></path>
        <path d="M1512 560L0 560 L0 493.38Q43.94 417.32, 120 461.26Q202.2 423.46, 240 505.66Q259.75 453.42, 312 473.17Q381.12 422.29, 432 491.41Q439.85 427.26, 504 435.12Q572.41 383.53, 624 451.95Q697.45 405.4, 744 478.85Q795.44 458.3, 816 509.74Q833.98 407.72, 936 425.69Q1001.5 371.19, 1056 436.69Q1097.17 405.86, 1128 447.03Q1152.1 399.13, 1200 423.22Q1294.47 397.7, 1320 492.17Q1362.06 414.23, 1440 456.29Q1466.88 411.17, 1512 438.05z" fill="#356cb1"></path>
        <path d="M1488 560L0 560 L0 525.17Q83.31 488.48, 120 571.79Q148.65 480.44, 240 509.09Q269.38 466.47, 312 495.85Q392.74 456.59, 432 537.32Q498.89 484.21, 552 551.1Q628.96 508.06, 672 585.02Q686.17 479.19, 792 493.36Q834.63 463.99, 864 506.61Q926.63 497.25, 936 559.88Q985.83 489.71, 1056 539.55Q1099.43 462.99, 1176 506.42Q1266.05 476.47, 1296 566.52Q1336.63 487.15, 1416 527.79Q1438.62 478.4, 1488 501.02z" fill="white"></path>
    </g>
    <defs>
        <mask id="SvgjsMask1253">
            <rect width="1440" height="560" fill="#ffffff"></rect>
        </mask>
        <linearGradient x1="84.72%" y1="139.29%" x2="15.28%" y2="-39.29%" gradientUnits="userSpaceOnUse" id="SvgjsLinearGradient1254">
            <stop stop-color="rgba(0, 0, 0, 1)" offset="0"></stop>
            <stop stop-color="#00459e" offset="1"></stop>
        </linearGradient>
    </defs>
</svg>