<svg xmlns="http://www.w3.org/2000/svg" version="1.1" xmlns:xlink="http://www.w3.org/1999/xlink" xmlns:svgjs="http://svgjs.com/svgjs" width="1440" height="560" preserveAspectRatio="none" viewBox="0 0 1440 560">
    <g mask="url(&quot;#SvgjsMask1112&quot;)" fill="none">
        <rect width="1440" height="560" x="0" y="0" fill="#0e2a47"></rect>
        <path d="M0 0L198.75 0L0 3.83z" fill="rgba(255, 255, 255, .1)"></path>
        <path d="M0 3.83L198.75 0L461.53 0L0 299.06z" fill="rgba(255, 255, 255, .075)"></path>
        <path d="M0 299.06L461.53 0L483.95 0L0 412.31z" fill="rgba(255, 255, 255, .05)"></path>
        <path d="M0 412.31L483.95 0L1042.28 0L0 429.26z" fill="rgba(255, 255, 255, .025)"></path>
        <path d="M1440 560L1279.08 560L1440 506.77z" fill="rgba(0, 0, 0, .1)"></path>
        <path d="M1440 506.77L1279.08 560L1208.55 560L1440 391.29999999999995z" fill="rgba(0, 0, 0, .075)"></path>
        <path d="M1440 391.3L1208.55 560L548.24 560L1440 218.57000000000002z" fill="rgba(0, 0, 0, .05)"></path>
        <path d="M1440 218.57000000000005L548.24 560L504.73 560L1440 82.77000000000004z" fill="rgba(0, 0, 0, .025)"></path>
    </g>
    <defs>
        <mask id="SvgjsMask1112">
            <rect width="1440" height="560" fill="#ffffff"></rect>
        </mask>
    </defs>
</svg>