<svg xmlns="http://www.w3.org/2000/svg" version="1.1" xmlns:xlink="http://www.w3.org/1999/xlink" xmlns:svgjs="http://svgjs.com/svgjs" width="1440" height="560" preserveAspectRatio="none" viewBox="0 0 1440 560">
    <g mask="url(&quot;#SvgjsMask1074&quot;)" fill="none">
        <rect width="1440" height="560" x="0" y="0" fill="rgba(34, 75, 117, 1)"></rect>
        <path d="M539 420L241 718" stroke-width="8" stroke="url(#SvgjsLinearGradient1075)" stroke-linecap="round" class="TopRight"></path>
        <path d="M144 554L561 137" stroke-width="8" stroke="url(#SvgjsLinearGradient1075)" stroke-linecap="round" class="TopRight"></path>
        <path d="M681 507L379 809" stroke-width="10" stroke="url(#SvgjsLinearGradient1075)" stroke-linecap="round" class="TopRight"></path>
        <path d="M1068 295L738 625" stroke-width="8" stroke="url(#SvgjsLinearGradient1075)" stroke-linecap="round" class="TopRight"></path>
        <path d="M1020 277L1264 33" stroke-width="6" stroke="url(#SvgjsLinearGradient1076)" stroke-linecap="round" class="BottomLeft"></path>
        <path d="M1416 530L1585 361" stroke-width="8" stroke="url(#SvgjsLinearGradient1076)" stroke-linecap="round" class="BottomLeft"></path>
        <path d="M836 424L1204 56" stroke-width="8" stroke="url(#SvgjsLinearGradient1076)" stroke-linecap="round" class="BottomLeft"></path>
        <path d="M604 292L994 -98" stroke-width="10" stroke="url(#SvgjsLinearGradient1076)" stroke-linecap="round" class="BottomLeft"></path>
        <path d="M1125 466L1325 266" stroke-width="8" stroke="url(#SvgjsLinearGradient1076)" stroke-linecap="round" class="BottomLeft"></path>
        <path d="M1397 335L1068 664" stroke-width="10" stroke="url(#SvgjsLinearGradient1076)" stroke-linecap="round" class="BottomLeft"></path>
        <path d="M1138 242L771 609" stroke-width="10" stroke="url(#SvgjsLinearGradient1076)" stroke-linecap="round" class="BottomLeft"></path>
        <path d="M340 15L-17 372" stroke-width="8" stroke="url(#SvgjsLinearGradient1076)" stroke-linecap="round" class="BottomLeft"></path>
        <path d="M51 98L-243 392" stroke-width="6" stroke="url(#SvgjsLinearGradient1075)" stroke-linecap="round" class="TopRight"></path>
        <path d="M458 199L641 16" stroke-width="6" stroke="url(#SvgjsLinearGradient1076)" stroke-linecap="round" class="BottomLeft"></path>
        <path d="M92 66L-294 452" stroke-width="8" stroke="url(#SvgjsLinearGradient1075)" stroke-linecap="round" class="TopRight"></path>
        <path d="M1050 301L836 515" stroke-width="6" stroke="url(#SvgjsLinearGradient1075)" stroke-linecap="round" class="TopRight"></path>
        <path d="M397 237L680 -46" stroke-width="10" stroke="url(#SvgjsLinearGradient1076)" stroke-linecap="round" class="BottomLeft"></path>
        <path d="M1236 417L887 766" stroke-width="8" stroke="url(#SvgjsLinearGradient1075)" stroke-linecap="round" class="TopRight"></path>
        <path d="M858 428L545 741" stroke-width="10" stroke="url(#SvgjsLinearGradient1076)" stroke-linecap="round" class="BottomLeft"></path>
        <path d="M887 99L601 385" stroke-width="10" stroke="url(#SvgjsLinearGradient1075)" stroke-linecap="round" class="TopRight"></path>
        <path d="M559 168L196 531" stroke-width="10" stroke="url(#SvgjsLinearGradient1076)" stroke-linecap="round" class="BottomLeft"></path>
        <path d="M1273 167L932 508" stroke-width="8" stroke="url(#SvgjsLinearGradient1076)" stroke-linecap="round" class="BottomLeft"></path>
        <path d="M1085 94L1444 -265" stroke-width="6" stroke="url(#SvgjsLinearGradient1076)" stroke-linecap="round" class="BottomLeft"></path>
        <path d="M1143 232L1549 -174" stroke-width="6" stroke="url(#SvgjsLinearGradient1075)" stroke-linecap="round" class="TopRight"></path>
        <path d="M47 254L-306 607" stroke-width="10" stroke="url(#SvgjsLinearGradient1076)" stroke-linecap="round" class="BottomLeft"></path>
        <path d="M725 230L532 423" stroke-width="8" stroke="url(#SvgjsLinearGradient1076)" stroke-linecap="round" class="BottomLeft"></path>
        <path d="M54 48L-363 465" stroke-width="10" stroke="url(#SvgjsLinearGradient1076)" stroke-linecap="round" class="BottomLeft"></path>
        <path d="M553 425L744 234" stroke-width="10" stroke="url(#SvgjsLinearGradient1075)" stroke-linecap="round" class="TopRight"></path>
        <path d="M996 454L1282 168" stroke-width="10" stroke="url(#SvgjsLinearGradient1075)" stroke-linecap="round" class="TopRight"></path>
        <path d="M309 324L671 -38" stroke-width="6" stroke="url(#SvgjsLinearGradient1076)" stroke-linecap="round" class="BottomLeft"></path>
        <path d="M114 325L-205 644" stroke-width="6" stroke="url(#SvgjsLinearGradient1075)" stroke-linecap="round" class="TopRight"></path>
        <path d="M979 397L1162 214" stroke-width="6" stroke="url(#SvgjsLinearGradient1076)" stroke-linecap="round" class="BottomLeft"></path>
        <path d="M1132 305L930 507" stroke-width="6" stroke="url(#SvgjsLinearGradient1075)" stroke-linecap="round" class="TopRight"></path>
        <path d="M397 255L677 -25" stroke-width="8" stroke="url(#SvgjsLinearGradient1076)" stroke-linecap="round" class="BottomLeft"></path>
        <path d="M492 211L109 594" stroke-width="6" stroke="url(#SvgjsLinearGradient1076)" stroke-linecap="round" class="BottomLeft"></path>
        <path d="M997 101L601 497" stroke-width="8" stroke="url(#SvgjsLinearGradient1075)" stroke-linecap="round" class="TopRight"></path>
        <path d="M561 367L904 24" stroke-width="10" stroke="url(#SvgjsLinearGradient1075)" stroke-linecap="round" class="TopRight"></path>
        <path d="M183 297L509 -29" stroke-width="8" stroke="url(#SvgjsLinearGradient1075)" stroke-linecap="round" class="TopRight"></path>
        <path d="M341 235L-74 650" stroke-width="10" stroke="url(#SvgjsLinearGradient1075)" stroke-linecap="round" class="TopRight"></path>
    </g>
    <defs>
        <mask id="SvgjsMask1074">
            <rect width="1440" height="560" fill="#ffffff"></rect>
        </mask>
        <linearGradient x1="0%" y1="100%" x2="100%" y2="0%" id="SvgjsLinearGradient1075">
            <stop stop-color="rgba(246, 247, 249, 0)" offset="0"></stop>
            <stop stop-color="rgba(246, 247, 249, 1)" offset="1"></stop>
        </linearGradient>
        <linearGradient x1="100%" y1="0%" x2="0%" y2="100%" id="SvgjsLinearGradient1076">
            <stop stop-color="rgba(246, 247, 249, 0)" offset="0"></stop>
            <stop stop-color="rgba(246, 247, 249, 1)" offset="1"></stop>
        </linearGradient>
    </defs>
</svg>