<svg xmlns="http://www.w3.org/2000/svg" version="1.1" xmlns:xlink="http://www.w3.org/1999/xlink" xmlns:svgjs="http://svgjs.com/svgjs" width="1440" height="560" preserveAspectRatio="none" viewBox="0 0 1440 560">
    <g mask="url(&quot;#SvgjsMask1550&quot;)" fill="none">
        <rect width="1440" height="560" x="0" y="0" fill="url(#SvgjsLinearGradient1551)"></rect>
        <path d="M0 0L644.79 0L0 153.34z" fill="rgba(255, 255, 255, .1)"></path>
        <path d="M0 153.34L644.79 0L710.29 0L0 229.85000000000002z" fill="rgba(255, 255, 255, .075)"></path>
        <path d="M0 229.85000000000002L710.29 0L1060.26 0L0 259.72z" fill="rgba(255, 255, 255, .05)"></path>
        <path d="M0 259.72L1060.26 0L1193.72 0L0 374.76000000000005z" fill="rgba(255, 255, 255, .025)"></path>
        <path d="M1440 560L1433.72 560L1440 506.15z" fill="rgba(0, 0, 0, .1)"></path>
        <path d="M1440 506.15L1433.72 560L650.4100000000001 560L1440 302.89z" fill="rgba(0, 0, 0, .075)"></path>
        <path d="M1440 302.89L650.4100000000001 560L543.0100000000001 560L1440 191.48z" fill="rgba(0, 0, 0, .05)"></path>
        <path d="M1440 191.48000000000002L543.0100000000001 560L398.55000000000007 560L1440 84.54000000000002z" fill="rgba(0, 0, 0, .025)"></path>
    </g>
    <defs>
        <mask id="SvgjsMask1550">
            <rect width="1440" height="560" fill="#ffffff"></rect>
        </mask>
        <linearGradient x1="15.28%" y1="-39.29%" x2="84.72%" y2="139.29%" gradientUnits="userSpaceOnUse" id="SvgjsLinearGradient1551">
            <stop stop-color="rgba(246, 219, 6, 1)" offset="0.21"></stop>
            <stop stop-color="rgba(246, 186, 6, 1)" offset="0.44"></stop>
        </linearGradient>
    </defs>
</svg>