<svg xmlns="http://www.w3.org/2000/svg" version="1.1" xmlns:xlink="http://www.w3.org/1999/xlink" xmlns:svgjs="http://svgjs.com/svgjs" width="1440" height="560" preserveAspectRatio="none" viewBox="0 0 1440 560">
    <g mask="url(&quot;#SvgjsMask1149&quot;)" fill="none">
        <rect width="1440" height="560" x="0" y="0" fill="url(#SvgjsLinearGradient1150)"></rect>
        <circle r="6.38" cx="17" cy="245.01" filter="url(#SvgjsFilter1151)" fill="rgba(245, 245, 245, 0.36)"></circle>
        <circle r="5.04" cx="299.69" cy="95.05000000000001" filter="url(#SvgjsFilter1151)" fill="rgba(245, 245, 245, 0.36)"></circle>
        <circle r="8.375" cx="1297.035" cy="507.175" filter="url(#SvgjsFilter1151)" fill="rgba(245, 245, 245, 0.36)"></circle>
        <circle r="6.615" cx="1325.925" cy="127.315" filter="url(#SvgjsFilter1151)" fill="rgba(245, 245, 245, 0.36)"></circle>
        <circle r="6.64" cx="328.65" cy="292.06" filter="url(#SvgjsFilter1151)" fill="rgba(245, 245, 245, 0.36)"></circle>
        <circle r="6.115" cx="466.425" cy="192.965" filter="url(#SvgjsFilter1151)" fill="rgba(245, 245, 245, 0.36)"></circle>
        <circle r="5.29" cx="913.6899999999999" cy="49.22" filter="url(#SvgjsFilter1151)" fill="rgba(245, 245, 245, 0.36)"></circle>
        <circle r="9.245" cx="540.215" cy="148.10500000000002" filter="url(#SvgjsFilter1151)" fill="rgba(245, 245, 245, 0.36)"></circle>
        <circle r="4.685" cx="400.055" cy="288.045" filter="url(#SvgjsFilter1151)" fill="rgba(245, 245, 245, 0.36)"></circle>
        <circle r="5.75" cx="1265.94" cy="23.08" filter="url(#SvgjsFilter1151)" fill="rgba(245, 245, 245, 0.36)"></circle>
        <circle r="7.44" cx="1185" cy="348.04" filter="url(#SvgjsFilter1151)" fill="rgba(245, 245, 245, 0.36)"></circle>
        <circle r="8.895" cx="863.5649999999999" cy="84.225" filter="url(#SvgjsFilter1151)" fill="rgba(245, 245, 245, 0.36)"></circle>
        <circle r="8.51" cx="15.649999999999999" cy="18.78" filter="url(#SvgjsFilter1151)" fill="rgba(245, 245, 245, 0.36)"></circle>
        <circle r="7.825" cx="1402.7450000000001" cy="267.895" filter="url(#SvgjsFilter1151)" fill="rgba(245, 245, 245, 0.36)"></circle>
        <circle r="6.9" cx="1123.41" cy="52.32" filter="url(#SvgjsFilter1151)" fill="rgba(245, 245, 245, 0.36)"></circle>
        <circle r="5.31" cx="1210.08" cy="33.75" filter="url(#SvgjsFilter1151)" fill="rgba(245, 245, 245, 0.36)"></circle>
        <circle r="7.565" cx="577.105" cy="506.995" filter="url(#SvgjsFilter1151)" fill="rgba(245, 245, 245, 0.36)"></circle>
        <circle r="8.445" cx="323.705" cy="57.995" filter="url(#SvgjsFilter1151)" fill="rgba(245, 245, 245, 0.36)"></circle>
        <circle r="8.34" cx="51.68000000000001" cy="553.73" filter="url(#SvgjsFilter1151)" fill="rgba(245, 245, 245, 0.36)"></circle>
        <circle r="5.925" cx="574.7149999999999" cy="267.02500000000003" filter="url(#SvgjsFilter1151)" fill="rgba(245, 245, 245, 0.36)"></circle>
        <path d="M1208.8 406.9L1208.7 427 1196.8 420.6C1195.6 419.8 1193.6 420.3 1192.3 421.8 1191.8 423.5 1192.3 425.5 1193.5 426.3L1209 435 1208.8 453.7 1177.4 435.7C1175.4 434.7 1173.4 435.1 1172.9 436.8 1171.6 438.4 1172 440.4 1174.1 441.4L1208.7 461.1 1209 478 1175.3 497.8 1162.2 490.6 1162.5 448.2C1162.2 447.6 1161.9 447.1 1161.5 446.5 1161.2 446 1160 445.2 1159.1 444.9 1156.8 444.8 1155.5 446.3 1155.9 448.3L1155.6 487.1 1139.8 477.8 1139.4 458C1139.9 457.7 1139.6 457.2 1139.3 456.6 1138.6 455.5 1137.4 454.7 1136 454.8 1134.6 454.9 1133.2 456.4 1132.8 458.2L1133.3 474.2 1113.3 462.9C1112.1 462.1 1110.1 462.6 1108.8 464.1 1108.3 465.8 1108.7 467.8 1109.9 468.6L1128.7 479.1 1117.1 485.9C1115.5 486.9 1115.3 489.2 1116 490.3 1116.9 491.9 1119 492.9 1120.7 492L1135.6 483.2 1151.4 492.5 1120.5 510.6C1118.8 511.6 1118.4 513.4 1119.4 515 1120.3 516.7 1122.1 517.1 1123.7 516.2L1158 496.1 1171.9 503.5 1172 542.8 1159.3 550.2 1123.8 530.2C1122.3 528.9 1119.8 529.6 1119.3 531.4 1118 532.9 1118.9 534.5 1120.5 535.9L1152.7 554.1 1136.6 563.5 1120.8 554.2C1119.6 553.4 1117.1 554.2 1116.3 555.4S1116.3 559.1 1117.8 560.4L1130 567.4 1110.7 578.7C1109 579.7 1108.9 582 1109.9 583.6 1110.5 584.7 1112.6 585.7 1114.3 584.8L1133.6 573.4 1134 588C1134.1 589.5 1135.1 591.1 1137.4 591.3 1138.8 591.2 1140.7 589.3 1140.6 587.9L1140.2 569.6 1156.2 560.2 1156.4 597.2C1156.8 599.1 1157.8 600.8 1160.1 600.9 1161.5 600.8 1163.4 599 1163.3 597.6L1162.8 556.3 1175.5 548.8 1209.8 568.1 1209.4 583.9 1175.2 603.9C1173.6 604.9 1173.1 606.7 1174.1 608.3 1175 610 1177.1 611 1178.8 610L1209.7 591.9 1210.1 610.2 1195.1 619C1193.5 619.9 1193 621.7 1194 623.3 1195 625 1196.7 625.4 1198.4 624.5L1210 617.7 1210 639.2C1210.1 640.6 1211.9 642.5 1213.4 642.4 1215.3 642 1217 641 1216.6 639L1216.8 616.6 1230.2 624.4C1232 624.8 1233.9 624.4 1234.7 623.2 1235.5 622 1235.4 620.6 1234.8 619.5 1234.8 619.5 1234.4 618.9 1233.6 618.7L1216.5 608.6 1216.2 590.3 1250.1 609C1251.7 610.3 1253.6 609.9 1254.6 607.8 1254.9 606.9 1255.1 606.1 1254.4 604.9 1254.1 604.4 1253.8 603.8 1253.5 603.3L1216.3 582.8 1216.4 567.9 1250.1 548.2 1264.7 556.6 1265.1 596.5C1264.9 598.8 1266.5 600.1 1268.4 599.7 1270.2 600.2 1271.5 598.6 1271.7 596.3L1271.3 560.2 1287.6 569.2 1287.7 586.9C1287.8 588.4 1289.3 589.7 1291 590.2 1293 589.7 1294.7 588.8 1294.3 586.8L1294.5 573.3 1312.1 583C1313.6 584.4 1315.3 583.4 1316.6 581.9 1316.8 581 1316.7 579.6 1316.1 578.5 1316.1 578.5 1315.7 577.9 1315.4 577.3L1296.7 566.8 1310.5 558.7C1311.6 558.1 1312.6 556 1311.6 554.4 1310.6 552.7 1308.3 552.6 1307.2 553.2L1290.1 563.3 1273.7 554.3 1307.4 534.6C1309.1 533.6 1309.2 531.3 1308.2 529.6S1305.5 527.5 1303.8 528.5L1266.9 550.2 1253.4 542.5 1253.4 503.2 1267.7 494.8 1303.5 515.3C1305.3 515.8 1307.3 515.4 1308.6 513.8 1308.8 513 1308.7 511.5 1308.1 510.4 1307.8 509.9 1307.4 509.3 1306.6 509.1L1274.4 490.9 1290.4 481.5 1306.7 490.4C1307.9 491.2 1309.9 490.8 1311.3 489.3 1311.7 487.5 1311.3 485.5 1310.1 484.8L1297 477.6 1314.7 467.2C1315.8 466.6 1316.5 464 1315.8 462.9 1314.8 461.2 1312.2 460.5 1311.1 461.2L1293.4 471.5 1293.9 457.2C1293.6 456.6 1293.3 456.1 1292.9 455.5 1292.3 454.4 1291.1 453.6 1290.2 453.4 1288.2 453.8 1286.9 455.3 1286.4 457.1L1286.8 475.4 1270.8 484.8 1270.6 447.8C1270.8 445.5 1269.2 444.2 1267.8 444.3 1265.5 444.1 1264.2 445.7 1263.7 447.4L1264.2 488.7 1249.8 497.1 1215.5 477.9 1215.4 462.4 1252.4 440.7C1254 439.7 1254.5 438 1253.5 436.3 1252.5 434.7 1250.8 434.2 1249.1 435.2L1215.4 454.9 1215.6 436.3 1232.7 426.3C1233.9 425.6 1234.5 423 1233.6 421.3 1232.6 419.7 1230.3 419.5 1229.2 420.2L1215.4 428.3 1215.4 406.8C1215.1 406.2 1215.1 406.2 1214.7 405.7 1214.1 404.6 1212.9 403.8 1212 403.5 1210 404 1208.7 405.5 1208.8 406.9ZM1243.2 501L1246.8 503.3 1246.8 507.1 1246.9 538.9 1246.8 542.6 1243.5 544.6 1216.5 560.4 1213.2 562.4 1209.9 560.6 1182.2 544.9 1178.9 543.2 1178.6 538.9 1178.8 507.6 1178.5 503.3 1181.8 501.4 1208.9 485.5 1212.2 483.6 1215.8 485.9 1243.2 501Z" fill="rgba(245, 245, 245, 0.36)"></path>
        <path d="M552.1 573.9L577.1 534.9 589.5 531.8 608.9 552.8 605.2 565.4 563.9 586.6C563.5 587 563.5 587 563 587.4 562.2 588.2 561.8 589.3 562.5 590.9 563.6 592.2 564.8 592.6 566.4 591.9L602.5 573.2 596.5 592.4 580.7 600.8C580.7 600.8 580.3 601.2 580.3 601.2 579.5 602 579 603.1 579.8 604.7 580.1 605.9 582.1 606.4 583.7 605.7L594.2 600.6 589.7 614.7C589.2 615.8 589.9 617.5 591.5 618.3S594.7 617.6 595.5 616.1L599.7 602.4 605.2 612.5C605.9 614.2 607.9 614.6 609.5 613.9 610.3 613.1 611.2 611.6 610.5 610L602 594.2 608.4 574.6 627.1 610.7C627.8 612.3 629.8 612.8 631 612.4 632.2 611.3 633.1 609.7 632.3 608.1L610.6 567.2 614.8 554.3 642 548.3 651.1 558.2 649.5 604.5C649.5 606.1 650.6 607.3 652.2 607.4S655 606.3 655.1 604.7L656.4 563.9 670.4 579.2 669.7 596.6C669.6 598.2 670.7 599.4 672.7 599.9S675.5 598.8 675.6 597.2L675.7 585 685.9 596.1C687.1 597.3 689.1 597 690.3 595.9 691.5 594.7 691.6 593.1 690.5 591.9L680.2 580.8 692.1 581.3C694.1 581.8 695.3 580.6 695 578.6 695.1 577 693.9 575.8 692.3 575.7L674.9 575 660.9 559.8 701.6 561.9C703.2 561.9 704.9 560.4 704.9 558.8S703.9 556 702.3 555.9L655.6 554 646.5 544.1 655.1 517.1 667.9 514.5 706.9 539.5C708.5 540.3 710.1 539.6 711.3 538.5 712.2 536.9 711.5 535.3 710.3 534.1L675.9 512.4 695.5 508.1 710.6 517.8C712.1 518.7 713.8 518 715 516.8 715.4 515.7 715.1 513.7 713.6 512.8L703.9 506.5 718.3 503.1C719.5 502.8 720.4 501.2 720.5 499.6 719.7 498 718.2 497.1 717 497.5L702.6 500.9 709 490.4C709.4 489.3 709.1 487.3 707.9 486.8 706.8 485.6 705.6 485.9 704.3 487.1 704.3 487.1 703.9 487.4 703.9 487.4L694.2 502.5 674.6 506.8 696.2 472.5C697.1 470.9 697.2 469.3 695.6 468.5 694.1 467.6 692.8 468 692 468.7 691.6 469.1 691.6 469.1 691.6 469.1L666.6 508.9 653.8 511.5 634.4 490.5 638.5 478.4 679.9 456.3C681.1 456 681.5 454 681.2 452.8 680.5 451.2 678.5 450.7 676.9 451.4L640.8 470.2 646.8 451 662.6 442.5C664.2 441.8 665.1 440.2 663.9 439 663.2 437.4 661.2 436.9 660 437.3L649.5 443.2 654 429.1C654.1 427.5 653.4 425.9 651.8 425 651 425 649.8 425.3 649 426.1 648.6 426.5 648.6 426.5 648.6 427.3L644 441.4 638.1 430.8C637.4 429.2 635.8 429.1 634.6 429.5 634.2 429.8 634.2 429.8 633.8 430.2 633 431 632.5 432.2 632.9 433.4L641.3 449.2 635.4 468.3 616.7 432.3C615.5 431.1 614 430.2 612.7 431.3 611.9 431.3 611.9 431.3 611.5 431.7 610.7 432.4 610.6 434 611 435.2L633 476.6 629 488.7 601.4 495.1 592.6 485.6 594.6 438.9C594.6 437.3 593.1 435.7 591.5 435.6S588.3 437.1 588.2 438.6L587 479.4 573.3 464.6 573.6 446.8C573.7 445.2 572.6 443.9 571 443.9 569.4 443.8 568.2 444.9 568.1 446.5L567.6 458.4 557.4 447.3C556.6 446.4 554.7 446 553.4 447.1 552.2 448.2 552.1 450.6 552.8 451.4L563.1 462.6 551.2 462.1C550.4 462 549.6 462 549.2 462.4 548.4 463.1 548.4 463.9 548.3 464.7 548.3 466.3 549.4 467.5 551 467.6L568.8 468.7 582.4 483.6 541.7 481.5C540.9 481.5 540.5 481.8 539.7 482.6 539.2 483 538.8 483.4 538.8 484.1 538.7 485.7 540.3 487.4 541.8 487.4L588.1 489.8 596.8 499.2 588.6 525.8 575.8 529.3 536.4 503.9C535.2 503.4 533.6 503.3 532.8 504.1 532.4 504.5 532.4 504.5 532.8 504.9 531.5 506 531.9 508 533.4 508.9L567.8 530.5 547.8 535.2 532.7 525.5C531.6 525.1 530.3 525.4 529.5 526.2 529.5 526.2 529.1 526.5 529.1 526.5 527.9 527.7 528.2 529.7 529.7 530.5L540.2 536.9 525.8 540.3C525 540.2 524.6 540.6 524.2 541 523.3 541.8 522.9 542.9 523.3 543.3 523.6 545.3 525.1 546.2 526.7 546.3L541.1 542.9 534.8 552.5C533.9 554.1 534.2 556.1 535.8 556.9 536.9 557.4 538.9 557.1 539.4 555.9L549.1 540.9 568.7 536.5 547.1 570.9C546.2 572.4 547 574.1 548.1 575.3 549.3 575.7 551.3 575.4 552.1 573.9ZM611.1 546.2L596.3 530.1 594.1 527.7 595 524.5 601.4 504.2 602.7 500.7 605.9 500 626.7 495.3 629.9 494.7 632.2 497.1 647 513.2 649.3 515.7 648.3 518.8 641.9 539.2 641 542.3 637.4 543.3 616.6 548 613.4 548.7 611.1 546.2Z" fill="rgba(245, 245, 245, 0.36)"></path>
        <path d="M717.5 98.8L730.1 113.8 718.6 116.4C717.3 116.5 716.2 117.9 716.2 119.7 716.9 121.1 718.3 122.2 719.7 121.5L734.3 118.9 744.6 130.1 714.3 135.6C712.8 136.3 711.8 137.7 711.9 139 712.4 140.9 713.8 142 715.3 141.3L748.8 135.1 764 152.8 737.2 154.8 757.1 173 734.2 177.5 711.6 151.9C711.8 151.4 711.3 151.2 710.7 151 709.7 150.6 708.4 150.8 707.5 151.7 706.6 152.5 706.6 154.3 707.3 155.7L727.8 178.8 712.7 181.3 702.9 170.2C702.5 169.5 702 169.3 701.5 169.1 701 168.9 699.7 169.1 698.8 170 697.9 170.9 697.9 172.6 698.8 173.5L706.3 182.6 687.1 186.7C685.3 186.7 684.8 188.2 684.8 190 684.9 191.3 686.3 192.3 688.3 191.8L707.3 188.3 703.4 199.4C702.9 201 704.1 202.6 705.2 203 706.8 203.5 708.2 202.9 708.7 201.3L713.7 187 728.8 184.5 718.9 213.1C718.3 214.7 719 216.1 720.6 216.6 721.7 217 723.6 216.5 724.2 214.9L735.2 183.2 758 178.6 746.8 202.6 772 194.7 764.3 217 731.3 223.3C729.4 223.8 728.8 225.4 729 226.6 729.2 227.9 730.6 229 732.3 229L762.3 222.8 757.4 237.1 742.6 240.3C740.9 240.2 739.8 241.6 740.3 243.6 740.5 244.8 741.9 245.9 743.8 245.4L755.2 243.4 748.8 261.9C748.2 263.5 748.9 265 750.5 265.5S753.5 265.4 754.1 263.8L760.5 245.2 768.2 253.8C769.4 255.4 771.2 255.5 772.1 254.6 773.7 253.4 773.7 251.6 772.3 250.5L762.7 238.9 767.6 224.6 787.4 248C788.8 249.1 790.5 249.1 791.4 248.3 793 247 793.1 245.3 791.7 244.2L769.6 218.8 777.3 196.6 792.3 218.3 798.3 192.6 813.5 210.3 802.5 242C801.9 243.6 803.2 245.2 804.2 245.6 805.8 246.1 807.2 245.4 807.8 243.8L817.9 214.7 828 226.5 823 240.8C822.5 242.4 823.2 243.8 824.8 244.4 825.8 244.8 827.8 244.2 828.3 242.7L832.2 231.5 844.9 246C846.2 247.6 847.9 247.7 849 246.3 849.9 245.4 850.5 243.8 849.1 242.7L836.5 227.7 848 225.2C849.3 225 850.3 223.6 850.2 222.4 850 221.1 849.1 220.2 848.6 220 848.1 219.9 847.5 219.7 846.8 220L832.3 222.7 822 211.4 852.3 205.9C853.7 205.2 854.8 203.8 854.6 202.6 854.5 201.3 853.6 200.4 852.6 200.1 852 199.9 852 199.9 851.3 200.2L817.8 206.4 802.6 188.7 829.3 186.7 809.5 168.6 832.4 164.1 855 189.7C855.8 190.6 857.4 191.1 859 189.9 859.9 189 860 187.2 859.3 185.8L838.8 162.7 853.9 160.2 863.7 171.3C864.4 172.8 866.1 172.8 867.8 171.6 868.7 170.7 868.7 168.9 868 167.5L860.3 158.9 879.5 154.9C881.2 154.9 881.8 153.3 881.8 151.5 881.5 150.8 880.6 149.9 880 149.7 879.5 149.6 879 149.4 878.3 149.7L859.3 153.2 863.1 142.1C863.7 140.5 862.5 138.9 861.4 138.6L861.4 138.6C859.8 138 858.4 138.7 857.8 140.3L852.9 154.6 837.8 157.1 847.7 128.5C848.3 126.9 847.6 125.5 846 124.9S843 125.1 842.4 126.6L831.4 158.4 808.5 162.9 819.8 139 794.5 146.8 802.2 124.6 835.2 118.2C837.2 117.7 837.8 116.1 837.6 114.9 837.4 113.7 836 112.6 834.2 112.6L804.4 118.2 809.2 104.5 823.9 101.3C825.7 101.3 826.8 99.9 826.3 97.9 826.1 96.7 824.7 95.6 822.9 95.6L811.4 98.1 817.8 79.6C818.4 78 817.7 76.6 816.1 76S813.1 76.2 812.5 77.8L806.1 96.3 798.4 87.7C798.1 87 797.5 86.8 797 86.6 795.9 86.3 795.2 86.6 794.5 87 792.9 88.2 792.9 90 794.3 91L803.9 102.7 799 116.9 779.2 93.5C778.7 93.3 778.2 93.1 777.6 93 776.6 92.6 775.9 92.9 775.1 93.3 773.5 94.5 773.5 96.3 774.9 97.4L796.9 122.8 789.2 145 774.3 123.2 768.3 149 753.1 131.3 764.1 99.5C764.6 98 763.4 96.3 762.4 96 760.8 95.4 759.3 96.1 758.8 97.7L748.9 126.3 738.6 115 743.5 100.7C744.1 99.1 743.4 97.7 741.8 97.2S738.8 97.3 738.2 98.9L734.4 110 721.6 95.5C721.3 94.8 720.8 94.6 720.2 94.4 719.7 94.2 718.5 94.4 717.6 95.3 716.7 96.2 716.1 97.8 717.5 98.8ZM776.8 136.5L789 154.4 809.6 147.9 800.3 167.8 816.1 182.1 794.6 184.2 789.8 205 777.6 187.2 757 193.7 766.1 174.3 750.5 159.4 771.7 157.9 776.8 136.5Z" fill="rgba(245, 245, 245, 0.36)"></path>
        <path d="M1163.7 225L1160.3 210.4 1170.1 213C1171.1 213.3 1172.5 212.7 1173.2 211.3 1173.2 210 1172.6 208.6 1171.6 208.2L1158.8 204.6 1155.7 190.9 1181.6 198.6C1183.3 199 1184.7 198.3 1184.7 197 1185.4 195.6 1184.8 194.3 1183.1 193.9L1154.4 185.4 1151.3 173.2 1172.5 152.9 1183.3 155.9 1190.4 186.9C1190.7 187.3 1191.1 187.6 1191.4 188 1191.7 188.3 1192.7 188.7 1193.4 188.7 1195.1 188.4 1195.8 187.1 1195.2 185.7L1188.7 157.4 1201.8 161.4 1205.6 175.7C1205.2 176.1 1205.6 176.4 1205.9 176.8 1206.6 177.5 1207.6 177.8 1208.6 177.5 1209.6 177.2 1210.3 175.8 1210.4 174.5L1207.2 162.9 1223.8 167.7C1224.8 168 1226.1 167.4 1226.9 166 1226.9 164.7 1226.2 163.3 1225.2 162.9L1209.7 158.5 1217 151.5C1218 150.5 1217.7 148.8 1217.1 148.2 1216.1 147.1 1214.4 146.7 1213.3 147.7L1204 156.7 1190.8 152.7 1210.3 134.1C1211.3 133.1 1211.3 131.7 1210.3 130.7 1209.3 129.6 1208 129.6 1206.9 130.6L1185.4 151.2 1174 148.2 1167.1 119.5 1175.1 111.9 1204.5 120.4C1205.8 121.1 1207.5 120.1 1207.5 118.7 1208.3 117.4 1207.3 116.4 1205.9 115.6L1179.3 107.9 1189.3 98.3 1202.5 102.3C1203.5 102.7 1205.2 101.7 1205.6 100.7S1205 98 1203.6 97.3L1193.5 94.3 1205.6 82.7C1206.7 81.7 1206.4 80 1205.4 79 1204.7 78.3 1203 77.9 1202 78.9L1189.8 90.5 1187 79.9C1186.7 78.9 1185.7 77.8 1184 78.1 1183 78.5 1181.9 80.1 1182.3 81.2L1185.7 94.5 1175.6 104.1 1169.1 77.1C1168.5 75.8 1167.5 74.7 1165.8 75 1164.7 75.3 1163.7 77 1164 78L1171.5 108.1 1163.5 115.7 1135.1 107.6 1132.7 96 1154.2 75.4C1155.2 74.4 1155.3 73.1 1154.3 72 1153.3 71 1151.6 70.6 1150.6 71.6L1131.1 90.2 1127.7 76.9 1137.1 67.9C1138.1 66.9 1138.1 65.6 1137.1 64.5 1136.1 63.5 1134.8 63.5 1133.7 64.5L1126.5 71.4 1122.7 55.7C1122.4 54.7 1120.7 53.6 1119.7 54 1118.3 54.6 1117.3 55.6 1118 57L1121.7 73.3 1110.5 70C1109.2 70 1107.8 70.7 1107.4 71.7 1107.1 72.7 1107.4 73.7 1108.1 74.4 1108.1 74.4 1108.4 74.7 1109.1 74.8L1123.2 79.2 1126.7 92.5 1098.7 84.7C1097.3 84 1095.9 84.7 1095.6 86.3 1095.5 87 1095.5 87.7 1096.2 88.4 1096.5 88.7 1096.9 89.1 1097.2 89.4L1127.9 97.9 1130.4 108.9 1109.2 129.1 1097.1 125.4 1089.9 96.4C1089.6 94.7 1088.3 94 1086.9 94.6 1085.5 94.6 1084.8 95.9 1085.1 97.6L1091.7 123.9 1078.2 120.2 1075.1 107.3C1074.7 106.2 1073.4 105.5 1072 105.5 1070.7 106.2 1069.6 107.1 1070.3 108.5L1072.4 118.4 1057.9 114.4C1056.6 113.6 1055.5 114.6 1054.8 116 1054.8 116.7 1055.1 117.7 1055.8 118.4 1055.8 118.4 1056.1 118.7 1056.5 119.1L1072 123.5 1063.3 131.8C1062.6 132.5 1062.2 134.1 1063.2 135.2 1064.2 136.2 1065.9 135.9 1066.6 135.3L1077.4 125 1090.9 128.7 1069.7 148.9C1068.7 149.9 1069 151.6 1070 152.6S1072.3 153.7 1073.4 152.7L1096.6 130.5 1107.7 133.8 1114.6 162.5 1105.5 171.1 1075.9 162.3C1074.5 162.3 1073.1 162.9 1072.4 164.2 1072.4 164.9 1072.7 165.9 1073.4 166.6 1073.7 167 1074 167.3 1074.7 167.4L1101.4 175.1 1091.3 184.7 1077.8 181C1076.8 180.6 1075.4 181.3 1074.7 182.6 1074.7 184 1075.3 185.4 1076.3 185.7L1087.1 188.7 1076 199.3C1075.3 200 1075.3 202 1076 202.7 1077 203.7 1079 203.8 1079.7 203.1L1090.8 192.5 1092.9 203.1C1093.3 203.4 1093.6 203.8 1093.9 204.1 1094.6 204.8 1095.6 205.2 1096.3 205.2 1097.7 204.5 1098.4 203.2 1098.4 201.8L1095 188.5 1105 178.9 1111.5 205.9C1111.8 207.6 1113.2 208.3 1114.2 208 1115.9 207.7 1116.6 206.3 1116.7 205L1109.2 174.9 1118.2 166.3 1146.5 174.4 1149.3 185.7 1126.1 207.9C1125.1 208.9 1125 210.2 1126 211.3 1127 212.3 1128.4 212.4 1129.4 211.4L1150.6 191.1 1153.7 204.8 1142.9 215.1C1142.2 215.7 1142.2 217.8 1143.2 218.8 1144.2 219.8 1145.9 219.5 1146.6 218.9L1155.2 210.6 1159 226.3C1159.3 226.6 1159.3 226.6 1159.6 227 1160.3 227.7 1161.3 228 1162 228 1163.3 227.4 1164 226.1 1163.7 225ZM1122.4 162.3L1119.3 161.2 1118.7 158.5 1113.1 135.3 1112.5 132.6 1114.6 130.6 1131.6 114.3 1133.7 112.3 1136.4 113.1 1159.3 119.7 1162 120.4 1163 123.5 1168.2 146.4 1169.2 149.4 1167.1 151.4 1150.1 167.7 1148 169.7 1145 168.6 1122.4 162.3Z" fill="rgba(245, 245, 245, 0.36)"></path>
        <path d="M134.5 580.5L153.1 531 166.2 524.6 192.9 543.5 191.7 558.4 150.6 592C150.3 592.5 150.3 592.5 149.9 593 149.2 594.1 148.9 595.5 150.1 597.1 151.7 598.2 153.1 598.5 154.8 597.3L190.6 567.7 188.5 590.6 172.9 603.8C172.9 603.8 172.5 604.3 172.5 604.3 171.8 605.4 171.5 606.8 172.7 608.4 173.4 609.7 175.7 609.8 177.3 608.6L187.9 600.3 186.2 617.2C185.9 618.6 187.1 620.2 189.1 620.8S192.5 619.3 193.1 617.4L194.4 601.1 203 611.1C204.2 612.7 206.5 612.8 208.2 611.6 208.9 610.5 209.5 608.6 208.3 607L195.1 591.3 197.5 567.9 227 603.8C228.2 605.4 230.5 605.5 231.8 604.8 232.9 603.2 233.5 601.3 232.3 599.7L198.3 559.1 199.8 543.7 228.8 530.5 241.3 539.4 250.6 591.5C250.9 593.3 252.5 594.4 254.3 594.1S257.2 592.2 256.9 590.4L248.6 544.5 267.9 558.2 271.3 577.9C271.6 579.6 273.1 580.7 275.4 580.8S278.3 578.9 278 577.2L275.2 563.4 289.3 573.4C290.9 574.5 293 573.7 294.2 572.1 295.3 570.5 295 568.8 293.4 567.7L279.3 557.7 292.7 555.4C295 555.4 296.1 553.9 295.3 551.7 295 549.9 293.4 548.8 291.6 549.1L272 552.5 252.7 538.8 298.7 531.4C300.5 531.1 302 529 301.7 527.2S299.8 524.3 298 524.6L245.4 533.6 232.8 524.7 236 492.5 249.7 486.5 299.3 505.1C301.2 505.7 302.8 504.5 303.9 503 304.5 501 303.3 499.4 301.8 498.3L258.2 482.3 279.1 472.8 298.2 480.1C300.1 480.7 301.8 479.5 302.9 477.9 303.1 476.5 302.3 474.3 300.3 473.7L288 468.9 303.3 461.7C304.6 461.1 305.2 459.1 304.9 457.3 303.7 455.7 301.7 455.1 300.5 455.8L285.2 463 289.8 449.8C290 448.4 289.2 446.2 287.8 446 286.2 444.9 285 445.6 283.9 447.2 283.9 447.2 283.5 447.7 283.5 447.7L276.2 466.8 255.3 476.4 271.3 432.8C271.9 430.8 271.6 429.1 269.7 428.5 267.7 427.9 266.5 428.6 265.7 429.6 265.3 430.1 265.3 430.1 265.3 430.1L246.9 480.6 233.2 486.6 206.6 467.7 208.2 453.2 249.2 418.6C250.4 418 250.5 415.7 249.8 414.4 248.6 412.8 246.3 412.7 244.7 413.9L208.9 443.4 210.9 420.6 226.6 407.4C228.2 406.2 228.8 404.2 227.2 403.1 226 401.5 223.7 401.4 222.5 402.1L212.1 411.2 213.8 394.4C213.5 392.6 212.3 391 210.4 390.4 209.5 390.5 208.2 391.2 207.5 392.2 207.1 392.8 207.1 392.8 207.3 393.7L205.5 410.5 196.4 400.1C195.2 398.5 193.4 398.8 192.2 399.4 191.8 400 191.8 400 191.4 400.5 190.7 401.5 190.5 403 191.1 404.2L204.4 419.9 202.3 442.7 172.8 406.9C171.2 405.8 169.3 405.2 168.2 406.8 167.3 406.9 167.3 406.9 166.9 407.4 166.2 408.5 166.5 410.3 167.1 411.5L201.7 452.5 200 467 170.7 480.7 158.7 472.2 149.7 419.5C149.4 417.8 147.3 416.3 145.5 416.6S142.2 419 142.6 420.8L150.8 466.6 132 453.3 128.2 433.3C127.9 431.5 126.3 430.4 124.5 430.7 122.7 431 121.6 432.6 121.9 434.4L124.2 447.8 110.1 437.8C109.1 437 106.8 437 105.6 438.5 104.5 440.1 105 442.8 106 443.5L120.1 453.5 106.8 455.8C105.9 455.9 105 456.1 104.6 456.6 103.9 457.7 104 458.6 104.2 459.5 104.5 461.2 106 462.3 107.8 462L128 459.1 146.8 472.4 100.7 479.8C99.9 479.9 99.5 480.4 98.7 481.5 98.4 482 98 482.5 98.2 483.4 98.5 485.2 100.5 486.7 102.3 486.4L154.6 477.9 166.6 486.4 163.8 518.1 150.2 525 100.2 506C98.8 505.8 97 506.1 96.2 507.2 95.9 507.7 95.9 507.7 96.4 508.1 95.3 509.6 96.1 511.8 98 512.4L141.6 528.4 120.4 538.4 101.2 531.1C99.8 530.9 98.6 531.6 97.8 532.6 97.8 532.6 97.4 533.1 97.4 533.1 96.3 534.7 97.2 536.9 99.1 537.4L112.3 542.1 97 549.3C96.1 549.4 95.7 550 95.4 550.5 94.6 551.5 94.4 552.9 94.9 553.3 95.7 555.5 97.7 556 99.5 555.7L114.8 548.5 110 560.8C109.4 562.8 110.2 564.9 112.2 565.5 113.6 565.7 115.7 564.9 115.9 563.5L123.2 544.3 144.1 534.8 128.1 578.4C127.5 580.3 128.7 582 130.3 583.1 131.7 583.3 133.9 582.5 134.5 580.5ZM193.8 535.5L173.4 521.1 170.3 518.9 170.6 515.1 172.9 490.9 173.5 486.6 176.9 485.1 199.1 474.9 202.5 473.4 205.6 475.7 226 490.1 229.1 492.3 228.8 496 226.6 520.3 226.3 524 222.5 526 200.4 536.2 196.9 537.7 193.8 535.5Z" fill="rgba(245, 245, 245, 0.36)"></path>
        <path d="M152 82.2L184.8 87.5 201.8 111.7 172.4 114.4 147 93.1C147 93.1 146.6 92.9 146.6 92.9 145.9 92.6 144.8 93 144.2 93.5 143.3 94.4 143.5 95.9 144.6 96.4L166.9 115 152.6 116.3 142.7 108.3C142.7 108.3 142.3 108.1 142.3 108.1 141.6 107.8 140.5 108.1 139.8 108.7 139 109.6 139.2 111.1 140.3 111.6L146.9 117.2 136.4 118.1C135.5 118.2 134.5 119.4 134.5 120.3 134.3 121.6 135.8 122.3 136.7 122.2L147.2 121.3 141.5 128C140.7 128.9 140.9 130.3 142 130.8 142.9 131.7 144.3 131.5 144.8 130.4L152.9 120.4 167 119.4 148.4 141.7C147.6 142.6 147.8 144.1 148.9 144.6 149.8 145.4 151.2 145.2 151.7 144.1L173.1 118.7 202.5 115.9 190 143.2 158.7 154.8C157.7 155.2 157.2 156.3 157.5 157.3 157.9 158.4 159 158.9 160.1 158.5L187.7 148.3 181.7 161.4 170 165.7C168.9 166.1 168.4 167.2 168.8 168.2 169.2 169.3 170.3 169.8 171.4 169.4L179.3 166.5 174.7 176.6C173.8 177.6 174.5 178.8 175.6 179.3 176.7 179.8 177.8 179.4 178.3 178.3L182.6 168.9 185.6 176.8C186 177.9 187.1 178.4 188.1 178S189.7 176.5 189.3 175.4L185 163.8 191 150.7 201.2 178.3C201.6 179.3 202.7 179.8 203.7 179.4 204.8 179 205.3 177.9 204.9 176.9L193.3 145.6 205.7 118.7 222.8 142.8 217.4 174.7C217.2 175.9 218.2 176.8 219.2 177.3 220.5 177.4 221.4 176.5 221.9 175.4L226.6 146.8 234.9 158.5 232.6 171.1C232.5 172.4 233.4 173.2 234.5 173.7 235.8 173.9 236.6 173 237 172.2L238.3 163.6 244.5 172.2C245.1 172.9 246.5 173.5 247.4 172.6 248.2 171.7 248.7 170.6 247.8 169.7L241.6 161.2 250.3 162.5C251.5 162.6 252.4 161.7 252.7 161 252.7 160.1 252.3 159 251.6 158.7 251.6 158.7 251.2 158.5 251.2 158.5L238.6 156.3 230.3 144.5 258.9 149.3C260.2 149.4 261.1 148.5 261.4 147.8 261.4 146.9 261 145.8 260.3 145.5 260.3 145.5 259.9 145.3 259.9 145.3L227.1 140 210 115.9 239.5 113.1 264.9 134.4C265.8 135.3 267.2 135.1 267.7 134 268.6 133.1 268.4 131.6 267.3 131.1L245 112.5 259.3 111.2 269.2 119.3C270.1 120.1 271.6 119.9 272.1 118.8 272.9 117.9 272.7 116.5 271.6 116L265 110.3 275.5 109.4C276.4 109.4 277.4 108.1 277.4 107.2 277.4 106.3 276.8 105.6 276.1 105.2 275.7 105.1 275.4 104.9 274.8 105.1L264.3 106 270 99.4C270.9 98.4 270.6 97 269.5 96.5 269.5 96.5 269.2 96.3 269.2 96.3 268.4 96 267.4 96.4 266.7 97L258.6 106.9 244.3 108.3 262.9 86C263.8 85.1 263.6 83.6 262.5 83.1 262.5 83.1 262.1 83 262.1 83 261.4 82.6 260.3 83 259.6 83.6L238.3 109 208.8 111.8 221.2 84.9 252.5 73.3C253.5 72.9 254 71.8 253.6 70.7 253.3 69.7 252.2 69.2 251.1 69.6L223.7 79.4 229.7 66.3 241.4 62C242.4 61.6 242.9 60.5 242.5 59.5S241 57.9 240 58.3L232 61.2 236.4 51.8C236.9 50.7 236.5 49.6 235.4 49.1 234.3 48.6 233.2 49 232.7 50.1L228.4 59.6 225.4 51.6C225.3 51.1 225.1 50.6 224.3 50.2S223.1 50.1 222.5 50.3C221.5 50.7 221 51.8 221.4 52.8L225.7 64.5 219.7 77.6 209.5 50C209.3 49.5 209.1 48.9 208.3 48.6 208 48.4 207.1 48.5 206.6 48.7 205.5 49.1 205 50.2 205.4 51.2L217 82.5 204.6 109.4 187.5 85.3 192.9 52.5C192.9 51.6 192.5 50.6 191.8 50.2 191.8 50.2 191.4 50.1 191.4 50.1 190.1 49.9 189.3 50.9 188.9 51.6L184.2 80.2 175.9 68.5 178.2 55.9C178.1 55 177.7 53.9 177 53.6 177 53.6 176.6 53.4 176.6 53.4 175.4 53.3 174.5 54.2 174.2 54.9L172.9 63.6 166.7 55C166.3 54.8 166.1 54.3 165.8 54.1 165 53.8 164.1 53.8 163.4 54.4 162.6 55.3 162.1 56.4 163 57.3L169.2 65.8 160.5 64.5C159.3 64.4 158.4 65.3 158.1 66 158 67.3 158.9 68.2 159.6 68.5L172.2 70.8 180.5 82.5 151.9 77.7C150.6 77.6 149.7 78.5 149.4 79.2 150 80.8 150.7 82 152 82.2Z" fill="rgba(245, 245, 245, 0.36)"></path>
        <path d="M375.9 295.9L375.2 262.8 381.3 256 401.1 260.8 403.9 269.7 387.9 298.7C387.8 299.1 387.8 299.1 387.7 299.5 387.6 300.3 387.8 301.2 388.8 301.8 390 302.1 390.9 301.9 391.5 300.8L405.5 275.4 409.6 289.1 403.6 300.4C403.6 300.4 403.5 300.8 403.5 300.8 403.3 301.6 403.5 302.5 404.6 303.1 405.2 303.7 406.6 303.2 407.3 302.1L411.5 294.9 414.4 305.1C414.6 306 415.7 306.6 416.9 306.5S418.6 304.8 418.4 303.6L415.4 293.8 422.8 297.6C423.8 298.3 425.2 297.8 425.8 296.7 426 295.9 425.9 294.7 424.8 294L413.5 288 409.5 273.9 435 287.8C436.1 288.5 437.4 288 438 287.3 438.3 286.1 438.1 284.9 437.1 284.2L407.9 268.6 405.2 259.3 418.9 244.9 428.3 247.1 445.8 275.2C446.4 276.2 447.6 276.4 448.5 275.8S449.8 274.1 449.2 273.1L433.7 248.4 448.1 251.9 454.6 262.5C455.2 263.5 456.4 263.7 457.7 263.2S459 261.5 458.4 260.5L453.6 253.2 464.1 255.7C465.2 256 466.3 255 466.6 253.8 466.8 252.7 466.3 251.7 465.1 251.4L454.6 248.9 461.8 244.5C463.2 244 463.5 242.8 462.5 241.7 461.9 240.8 460.7 240.5 459.7 241.1L449.1 247.6 434.7 244.2 459.7 229.2C460.7 228.6 461.1 227 460.5 226.1S458.7 224.8 457.8 225.4L429.3 242.8 420 240.6 414.3 221.2 420.9 214.5 454 213.8C455.2 213.7 455.9 212.6 456.2 211.4 456.1 210.2 455 209.5 453.8 209.2L424.8 210.1 434.7 199.7 447.5 199.5C448.8 199.4 449.4 198.3 449.7 197.1 449.5 196.3 448.5 195.2 447.3 195.3L439 195.4 446.2 187.7C446.8 187 446.7 185.7 446.1 184.8 445 184.1 443.8 184.2 443.2 184.9L436 192.6 435.6 183.9C435.4 183 434.4 182 433.6 182.2 432.4 181.9 431.8 182.6 431.5 183.7 431.5 183.7 431.4 184.1 431.4 184.1L431.7 196.9 421.8 207.3 420.9 178.3C420.8 177.1 420.2 176.1 419 176.2 417.7 176.3 417.1 177 416.9 177.8 416.8 178.2 416.8 178.2 416.8 178.2L417.8 211.7 411.3 218.4 391.5 213.6 389.1 204.8 404.8 175.3C405.4 174.6 404.9 173.2 404.2 172.7 403.1 172 401.7 172.5 401.1 173.6L387.2 199 383 185.3 389 174C389.7 172.9 389.6 171.6 388.4 171.4 387.4 170.7 386 171.2 385.4 171.9L381.5 179.6 378.6 169.4C378 168.4 377 167.8 375.7 167.9 375.2 168.2 374.6 168.9 374.5 169.6 374.4 170 374.4 170 374.7 170.5L377.6 180.7 369.9 176.8C368.8 176.1 367.8 176.7 367.3 177.4 367.2 177.8 367.2 177.8 367.1 178.2 366.9 178.9 367.1 179.8 367.8 180.4L379.1 186.4 383.2 200.1 357.7 186.2C356.6 185.9 355.3 186 355 187.2 354.5 187.5 354.5 187.5 354.5 187.9 354.3 188.7 354.9 189.6 355.5 190.2L385.1 205.9 387.5 214.7 373.7 229.5 364.7 227.4 347.3 198.9C346.7 198 345.1 197.6 344.2 198.2S342.8 200.3 343.4 201.3L358.9 226 344.9 222.6 338 211.9C337.4 210.9 336.2 210.7 335.3 211.3 334.3 211.8 334 213 334.6 214L339.1 221.2 328.6 218.7C327.8 218.5 326.4 219 326.1 220.2 325.9 221.3 326.8 222.8 327.5 223L338 225.5 330.8 229.9C330.3 230.2 329.8 230.5 329.7 230.9 329.6 231.7 329.8 232.2 330.1 232.7 330.7 233.6 331.9 233.9 332.9 233.3L343.9 226.9 357.9 230.2 332.9 245.2C332.4 245.5 332.3 245.9 332.1 246.7 332 247.1 331.9 247.5 332.2 248 332.8 248.9 334.4 249.3 335.3 248.7L363.7 231.6 372.7 233.8 378.4 252.8 372.1 260 338.7 260.6C337.8 260.8 336.8 261.4 336.6 262.2 336.5 262.6 336.5 262.6 336.9 262.7 336.7 263.8 337.6 264.9 338.9 264.8L367.9 263.9 357.9 274.7 345.1 274.9C344.2 275.1 343.7 275.8 343.5 276.6 343.5 276.6 343.4 277 343.4 277 343.1 278.1 344.1 279.2 345.3 279.1L354.1 278.7 346.9 286.4C346.4 286.7 346.3 287.1 346.2 287.5 346 288.3 346.2 289.2 346.6 289.2 347.6 290.3 348.8 290.2 349.8 289.6L357 281.9 357.1 290.1C357.2 291.4 358.2 292.4 359.4 292.3 360.3 292.1 361.4 291.1 361.2 290.3L360.9 277.5 370.8 267.1 371.7 296.1C371.8 297.3 372.9 298 374.1 298.3 374.9 298.1 376 297.1 375.9 295.9ZM399.8 255.9L384.7 252.3 382.3 251.7 381.6 249.5 377.3 234.9 376.7 232.3 378.3 230.6 388.8 219.6 390.4 217.9 392.8 218.5 407.9 222.1 410.3 222.7 411 224.9 415.3 239.5 416 241.7 414.3 243.8 403.8 254.8 402.2 256.5 399.8 255.9Z" fill="rgba(245, 245, 245, 0.36)"></path>
        <path d="M891.8 370.2L877.8 348.8 879.9 339.7 884.6 346.9C884.9 347.8 885.9 347.8 886.8 347.5 887.3 347 887.7 345.9 887.2 345.4L880.9 335.3 882.7 326.3 889.4 332.6 889.9 344.5C889.9 344.5 890 344.8 890 344.8 890.2 345.4 891 345.9 891.7 346 892.6 345.7 893.1 345.2 893.1 344.2L892.7 335.6 899.4 341.8 900.9 367.2C900.9 367.2 900.7 367.6 900.7 367.6 900.9 368.2 901.7 368.6 902.4 368.7 903.4 368.7 904.1 367.8 903.8 366.9L902.7 344.8 911.2 352.1 911.7 362C911.7 362 911.7 362 911.8 362.4 912 363 912.5 363.5 913.2 363.6 914.1 363.3 914.9 362.7 914.9 361.7L914.5 355.1 920.6 360.5C921.2 361.3 922.1 361 922.6 360.5 923.4 359.9 923.5 358.9 922.6 358.2L916.7 352.7 923.1 352.6C924 352.4 924.8 351.8 924.5 350.8 924.6 349.8 924.1 349.3 923 349.3L913.1 349.8 905 342.4 927.5 341.2C928.2 341.3 928.9 340.4 928.9 339.3 928.7 338.7 928.1 337.9 927.1 337.9L901.7 339.4 895 333.1 903.6 332.7C904.6 332.7 905 331.9 905 330.9 905.1 330.2 904.2 329.5 903.5 329.4L891.7 330.2 884.6 324 893.5 321.2 903.9 326.6C904.7 327 905.7 326.7 906.1 325.9 906.6 325.4 906.2 324.1 905.4 323.7L897.7 319.8 906.6 317 929.2 328.8C930 329.2 930.9 328.9 931.3 328.1 931.8 327.3 931.5 326.4 930.7 326L910.8 315.6 921.2 312.2 930 316.8C930.8 317.2 931.8 316.9 932.2 316.1 932.6 315.3 932.3 314.4 931.5 314L925.7 310.8 933.4 308.3C934.3 308 934.7 307.2 934.4 306.3 934.1 305.4 933.3 305 932.4 305.3L924.8 307.7 927.7 302.1C928.1 301.3 927.8 300.4 927 300S925.2 299.8 924.8 300.6L920.5 309.1 909.8 312.5 919.9 292.8C920.4 292 920.1 291.1 919.3 290.7 918.5 290.3 917.5 290.6 917.1 291.4L905.6 313.9 896.7 316.8 900.7 309.1C901.1 308.3 900.8 307.4 900 307 899.2 306.6 898.3 306.9 897.8 307.7L892.5 318.1 884 320.9 885.9 312.2 895.8 305.6C896.4 305.1 896.7 304 896.2 303.5 895.6 302.7 894.9 302.6 893.9 302.9L886.7 307.6 888.6 298.9 910 284.9C910.8 284.3 910.9 283.6 910.6 282.7 910 281.9 909 281.9 908.4 282.1L889.5 294.2 892 283.3 900.1 278C901 277.7 901 276.7 900.7 275.8 900.2 275.3 899.1 275 898.3 275.6L893 279 894.5 271.1C894.9 270.3 894.3 269.5 893.2 269.2 892.5 269.1 891.6 269.7 891.5 270.4L889.7 278.3 886.2 272.7C885.6 271.9 884.6 271.9 884.1 272.4 883.2 272.7 883.1 273.4 883.3 274 883.4 274.3 883.4 274.3 883.5 274.6L888.8 282.7 886.2 293.6 874.2 275C873.9 274 872.9 274 872 274.3 871.4 274.8 871.3 275.5 871.5 276.1 871.6 276.5 871.6 276.5 871.6 276.5L885.4 298.2 883.5 306.9 878.8 299.7C878.2 298.9 877.5 298.8 876.6 299.1 876.1 299.6 875.7 300.4 875.8 301 875.9 301.3 875.9 301.3 876 301.6L882.6 311.6 880.7 320.3 874.1 314.3 873.3 302.5C873.3 301.5 872.4 300.7 871.7 300.6 870.8 300.9 870 301.5 870.3 302.4L870.7 311.1 863.8 305.2 862.5 279.4C862.6 278.7 861.7 278 861 277.9 860.1 278.2 859.3 278.8 859.3 279.8L860.4 301.9 852.2 294.5 851.8 284.9C851.8 283.8 850.9 283.1 850 283.4 849.3 283.3 848.5 283.9 848.5 284.9L848.9 291.5 842.8 286.1C842.3 285.6 841.3 285.6 840.5 286.2 840.3 286.6 840.2 287.3 840.4 287.9 840.4 287.9 840.5 288.2 840.6 288.5L846.7 293.9 840.1 294.4C839.4 294.3 838.7 295.2 838.6 295.9 838.7 296.2 838.7 296.2 838.7 296.2 838.9 297.1 839.8 297.5 840.4 297.3L850 296.9 858.4 304.3 835.9 305.5C835 305.7 834.5 306.2 834.5 307.3 834.5 307.3 834.6 307.6 834.6 307.6 834.8 308.2 835.3 308.7 836.3 308.7L861.8 307.5 868.4 313.5 859.8 313.9C858.9 314.2 858.1 314.8 858.4 315.7 858.1 315.8 858.2 316.1 858.2 316.1 858.4 316.7 859.2 317.1 859.9 317.2L871.8 316.4 878.5 322.7 869.9 325.4 859.5 320.1C858.7 319.6 857.4 320 857 320.8 856.9 321.5 857.2 322.5 857.7 323L865.7 326.8 856.8 329.6 834.3 318.1C833.5 317.7 832.6 318 832.2 318.8 831.7 319.6 832 320.5 832.8 320.9L852.6 331 841.9 334.5 833.5 330.1C832.7 329.7 831.7 330 831.3 330.8S831.2 332.5 832 332.9L837.7 335.8 830.1 338.3C829.1 338.6 828.7 339.4 829 340.3 829.3 341.2 830.1 341.6 831 341.3L838.6 338.9 835.9 344.8C835.6 345.2 835.4 345.6 835.5 345.9 835.6 346.2 836.1 346.7 836.5 347 837.3 347.4 838.3 347.1 838.7 346.3L842.9 337.5 853.6 334.1 843.6 354.1C843.4 354.5 843.1 354.9 843.2 355.2 843.3 355.5 843.8 356 844.2 356.2 845.1 356.6 846 356.4 846.4 355.5L857.8 332.7 866.7 329.8 862.4 337.6C862.2 338 862.4 338.6 862.5 338.9 862.6 339.2 862.7 339.5 863.1 339.7 863.9 340.1 865.2 339.7 865.3 339L870.9 328.5 879.5 325.7 877.6 334.7 867.6 341C867.1 341.5 866.6 342.3 866.8 342.9 866.9 343.2 866.9 343.2 867.2 343.1 867.5 344 868.6 344.3 869.5 343.7L876.7 339 874.9 348 853.1 361.8C852.6 362.3 852.5 363 852.7 363.6 852.8 363.9 852.8 363.9 852.8 363.9 853.4 364.7 854.2 365.1 855 364.5L873.9 352.4 871.4 363.3 863.4 368.6C862.5 369.2 862.4 369.9 862.6 370.5 862.6 370.5 862.7 370.8 862.7 370.8 863.3 371.6 864.3 371.6 864.9 371.4L870.4 367.6 868.6 375.6C868.7 375.9 868.8 376.2 868.9 376.5 869 376.8 869.5 377.3 869.9 377.5 871 377.5 871.9 377.2 871.9 376.2L873.7 368.3 877.2 373.9C877.8 374.7 878.8 374.7 879.4 374.5 880.2 373.9 880.2 372.9 879.9 372L874.6 363.9 876.9 353.1 888.9 371.7C889.5 372.6 890.6 372.9 891.1 372.4 892 371.8 892.4 371 891.8 370.2Z" fill="rgba(245, 245, 245, 0.36)"></path>
    </g>
    <defs>
        <mask id="SvgjsMask1149">
            <rect width="1440" height="560" fill="#ffffff"></rect>
        </mask>
        <linearGradient x1="50%" y1="0%" x2="50%" y2="100%" gradientUnits="userSpaceOnUse" id="SvgjsLinearGradient1150">
            <stop stop-color="#0e2a47" offset="0"></stop>
            <stop stop-color="rgba(0, 69, 158, 1)" offset="1"></stop>
        </linearGradient>
        <filter id="SvgjsFilter1151">
            <feGaussianBlur stdDeviation="1"></feGaussianBlur>
        </filter>
    </defs>
</svg>